<svg width="411" height="74" viewBox="0 0 411 74" fill="none" xmlns="http://www.w3.org/2000/svg">
<path d="M30.9496 0C13.4419 0 0 12.5256 0 29.1715C0 45.735 13.4419 58.5078 30.9496 58.5078C48.4572 58.5078 61.8991 45.735 61.8991 29.1715C61.8991 12.608 48.4572 0 30.9496 0ZM31.1155 9.88864C41.7363 9.88864 50.5316 18.294 50.5316 29.1715C50.5316 40.049 41.7363 48.6192 31.1155 48.6192C20.4118 48.6192 11.3675 40.049 11.3675 29.1715C11.3675 18.294 20.3288 9.88864 31.1155 9.88864Z" fill="white"/>
<path d="M97.3785 13.5969C92.2458 13.5969 88.006 15.2228 84.8894 18.208C84.0687 18.994 82.4431 18.4583 82.4431 17.3219V15.0675C82.4431 14.4373 81.9323 13.9265 81.3022 13.9265H72.7974C72.1672 13.9265 71.6564 14.4373 71.6564 15.0675V72.859C71.6564 73.4892 72.1672 74 72.7974 74H81.3022C81.9323 74 82.4431 73.4892 82.4431 72.859V54.6175C82.4431 53.4882 84.0387 52.9559 84.854 53.7373C88.0204 56.7715 92.303 58.4254 97.5445 58.4254C110.157 58.4254 118.371 49.4432 118.371 36.176C118.371 22.6615 109.908 13.5969 97.3785 13.5969ZM94.9723 49.196C87.5875 49.196 82.4431 43.7572 82.4431 35.8463C82.4431 28.1002 87.5875 22.5791 94.9723 22.5791C102.274 22.5791 107.418 28.1002 107.418 35.8463C107.418 43.6748 102.274 49.196 94.9723 49.196Z" fill="white"/>
<path d="M146.223 13.5969C132.947 13.5969 123.654 22.6615 123.654 36.0935C123.654 49.3608 132.698 58.4254 146.472 58.4254C153.841 58.4254 160.025 55.9244 164.394 51.6175C164.824 51.1935 164.813 50.5049 164.394 50.0704L160.147 45.6718C159.701 45.2098 158.964 45.2102 158.483 45.636C155.438 48.3312 151.55 49.7728 147.384 49.7728C141.401 49.7728 136.836 46.5332 135.066 41.0957C134.84 40.4004 135.385 39.7194 136.116 39.7194H166.398C166.998 39.7194 167.497 39.2505 167.525 38.6508C168.236 23.2824 161.472 13.5969 146.223 13.5969ZM135.769 32.5501C135.07 32.5501 134.532 31.9253 134.694 31.2453C136.059 25.4945 140.355 21.9198 146.306 21.9198C152.61 21.9198 156.871 25.5456 157.58 31.3685C157.658 32.011 157.135 32.5501 156.488 32.5501H135.769Z" fill="white"/>
<path d="M203.541 13.5145C198.039 13.5773 193.501 15.1721 190.258 18.5177C189.433 19.3687 187.61 18.83 187.61 17.6448V15.0675C187.61 14.4373 187.099 13.9265 186.469 13.9265H177.965C177.334 13.9265 176.824 14.4373 176.824 15.0675V56.8724C176.824 57.5025 177.334 58.0134 177.965 58.0134H186.469C187.099 58.0134 187.61 57.5025 187.61 56.8724V36.3408C187.61 29.0891 191.925 23.7327 199.227 23.6503C205.367 23.6503 209.101 27.441 209.101 33.6214V56.8724C209.101 57.5025 209.612 58.0134 210.242 58.0134H218.829C219.46 58.0134 219.97 57.5025 219.97 56.8724V30.49C219.97 20.0245 213.747 13.5145 203.541 13.5145Z" fill="white"/>
<path d="M256.646 0.329622H233.642C233.012 0.329622 232.501 0.840446 232.501 1.47058V56.8724C232.501 57.5025 233.012 58.0134 233.642 58.0134H256.232C274.154 58.0134 286.932 45.9822 286.932 29.1715C286.932 12.2784 274.237 0.329622 256.646 0.329622ZM256.895 48.2895H244.76C244.13 48.2895 243.619 47.7787 243.619 47.1486V11.1944C243.619 10.5643 244.13 10.0535 244.76 10.0535H256.481C267.35 10.0535 275.565 17.9644 275.565 29.2539C275.565 40.461 267.599 48.2895 256.895 48.2895Z" fill="white"/>
<path d="M337.905 57.3158C338.083 57.7386 338.497 58.0134 338.956 58.0134H348.405C349.227 58.0134 349.78 57.1702 349.451 56.4165L325.305 1.01471C325.123 0.598639 324.712 0.329622 324.259 0.329622H314.216C313.764 0.329622 313.355 0.596307 313.172 1.00967L288.707 56.4115C288.374 57.1657 288.926 58.0134 289.75 58.0134H298.776C299.234 58.0134 299.649 57.7386 299.827 57.3158L304.383 46.5149C304.561 46.0922 304.975 45.8174 305.434 45.8174H332.297C332.756 45.8174 333.17 46.0922 333.349 46.5149L337.905 57.3158ZM310.384 36.3408C309.567 36.3408 309.014 35.5063 309.334 34.7538L317.89 14.6066C318.285 13.677 319.604 13.6809 319.993 14.6127L328.411 34.7599C328.725 35.5116 328.173 36.3408 327.358 36.3408H310.384Z" fill="white"/>
<path d="M393.373 57.536C393.588 57.8356 393.933 58.0134 394.302 58.0134H404.845C405.775 58.0134 406.315 56.96 405.771 56.2053L365.845 0.803508C365.63 0.505947 365.286 0.329622 364.919 0.329622H354.695C353.766 0.329622 353.227 1.37901 353.766 2.13413L393.373 57.536Z" fill="white"/>
<path d="M352.448 56.2062C351.905 56.961 352.445 58.0132 353.374 58.0132H363.585C363.956 58.0132 364.303 57.8335 364.517 57.5312L403.643 2.22175C404.178 1.46607 403.637 0.421875 402.712 0.421875H393.144C392.777 0.421875 392.432 0.598613 392.218 0.896751L352.448 56.2062Z" fill="#1BE6E6"/>
<path d="M409.318 9.17086C410.212 10.7928 409.506 11.2087 408.766 11.2087H400.12C399.405 11.2087 398.328 10.9979 397.848 10.1898L392.655 2.45287C391.863 1.18442 392.079 0.415039 393.33 0.415039H402.245C403.037 0.415039 403.691 0.768539 404.099 1.43395L409.318 9.17086Z" fill="white"/>
<path d="M393.374 57.6214C393.588 57.921 393.933 58.0988 394.302 58.0988H404.845C405.775 58.0988 406.315 57.0454 405.771 56.2908L365.845 0.888925C365.631 0.591364 365.286 0.415039 364.919 0.415039H354.695C353.766 0.415039 353.227 1.46443 353.766 2.21955L393.374 57.6214Z" fill="white"/>
</svg>
